<svg xmlns="http://www.w3.org/2000/svg" xmlns:xlink="http://www.w3.org/1999/xlink" width="1575" zoomAndPan="magnify" viewBox="0 0 1181.25 717.000001" height="956" preserveAspectRatio="xMidYMid meet" version="1.0"><defs><clipPath id="7663018649"><path d="M 276.371094 44.121094 L 904.128906 44.121094 L 904.128906 671.878906 L 276.371094 671.878906 Z M 276.371094 44.121094 " clip-rule="nonzero"/></clipPath><clipPath id="194adc9c6d"><path d="M 590.25 44.121094 L 276.371094 358 L 433.308594 358 L 433.308594 671.878906 L 747.191406 671.878906 L 747.191406 358 L 904.128906 358 Z M 590.25 44.121094 " clip-rule="nonzero"/></clipPath><clipPath id="d0a72ad5fb"><path d="M 0.371094 0.121094 L 628.128906 0.121094 L 628.128906 627.878906 L 0.371094 627.878906 Z M 0.371094 0.121094 " clip-rule="nonzero"/></clipPath><clipPath id="58770171c6"><path d="M 314.25 0.121094 L 0.371094 314 L 157.308594 314 L 157.308594 627.878906 L 471.191406 627.878906 L 471.191406 314 L 628.128906 314 Z M 314.25 0.121094 " clip-rule="nonzero"/></clipPath><clipPath id="214da0378a"><rect x="0" width="629" y="0" height="628"/></clipPath></defs><g clip-path="url(#7663018649)"><g clip-path="url(#194adc9c6d)"><g transform="matrix(1, 0, 0, 1, 276, 44)"><g clip-path="url(#214da0378a)"><g clip-path="url(#d0a72ad5fb)"><g clip-path="url(#58770171c6)"><path fill="#000000" d="M 0.371094 0.121094 L 628.128906 0.121094 L 628.128906 627.878906 L 0.371094 627.878906 Z M 0.371094 0.121094 " fill-opacity="1" fill-rule="nonzero"/></g></g></g></g></g></g></svg>