<svg xmlns="http://www.w3.org/2000/svg" xmlns:xlink="http://www.w3.org/1999/xlink" width="1575" zoomAndPan="magnify" viewBox="0 0 1181.25 717.000001" height="956" preserveAspectRatio="xMidYMid meet" version="1.0"><defs><clipPath id="ab294e93c2"><path d="M 0.449219 0 L 1180.054688 0 L 1180.054688 716 L 0.449219 716 Z M 0.449219 0 " clip-rule="nonzero"/></clipPath><clipPath id="d5fac21a1b"><path d="M 276.371094 44.121094 L 904.128906 44.121094 L 904.128906 671.878906 L 276.371094 671.878906 Z M 276.371094 44.121094 " clip-rule="nonzero"/></clipPath><clipPath id="a77d9a973c"><path d="M 590.25 44.121094 L 276.371094 358 L 433.308594 358 L 433.308594 671.878906 L 747.191406 671.878906 L 747.191406 358 L 904.128906 358 Z M 590.25 44.121094 " clip-rule="nonzero"/></clipPath><clipPath id="dd4032317a"><path d="M 0.371094 0.121094 L 628.128906 0.121094 L 628.128906 627.878906 L 0.371094 627.878906 Z M 0.371094 0.121094 " clip-rule="nonzero"/></clipPath><clipPath id="30cf947a93"><path d="M 314.25 0.121094 L 0.371094 314 L 157.308594 314 L 157.308594 627.878906 L 471.191406 627.878906 L 471.191406 314 L 628.128906 314 Z M 314.25 0.121094 " clip-rule="nonzero"/></clipPath><clipPath id="f881c5d2b8"><rect x="0" width="629" y="0" height="628"/></clipPath></defs><g clip-path="url(#ab294e93c2)"><path fill="#ffffff" d="M 0.449219 0 L 1180.054688 0 L 1180.054688 716 L 0.449219 716 Z M 0.449219 0 " fill-opacity="1" fill-rule="nonzero"/><path fill="#ffffff" d="M 0.449219 0 L 1180.054688 0 L 1180.054688 716 L 0.449219 716 Z M 0.449219 0 " fill-opacity="1" fill-rule="nonzero"/></g><g clip-path="url(#d5fac21a1b)"><g clip-path="url(#a77d9a973c)"><g transform="matrix(1, 0, 0, 1, 276, 44)"><g clip-path="url(#f881c5d2b8)"><g clip-path="url(#dd4032317a)"><g clip-path="url(#30cf947a93)"><path fill="#000000" d="M 0.371094 0.121094 L 628.128906 0.121094 L 628.128906 627.878906 L 0.371094 627.878906 Z M 0.371094 0.121094 " fill-opacity="1" fill-rule="nonzero"/></g></g></g></g></g></g></svg>