<svg xmlns="http://www.w3.org/2000/svg" xmlns:xlink="http://www.w3.org/1999/xlink" width="1575" zoomAndPan="magnify" viewBox="0 0 1181.25 717.000001" height="956" preserveAspectRatio="xMidYMid meet" version="1.0"><defs><clipPath id="37aa6e951f"><path d="M 251.417969 63 L 661 63 L 661 693 L 251.417969 693 Z M 251.417969 63 " clip-rule="nonzero"/></clipPath><clipPath id="997377c2fc"><path d="M 251.859375 377.957031 C 251.859375 372.816406 251.984375 367.679688 252.238281 362.546875 C 252.492188 357.410156 252.867188 352.285156 253.371094 347.171875 C 253.875 342.054688 254.503906 336.957031 255.261719 331.871094 C 256.015625 326.789062 256.894531 321.726562 257.894531 316.683594 C 258.898438 311.640625 260.027344 306.628906 261.273438 301.640625 C 262.523438 296.65625 263.894531 291.703125 265.386719 286.785156 C 266.878906 281.867188 268.492188 276.988281 270.222656 272.148438 C 271.957031 267.308594 273.804688 262.515625 275.773438 257.765625 C 277.742188 253.015625 279.824219 248.320312 282.023438 243.671875 C 284.222656 239.027344 286.53125 234.4375 288.957031 229.902344 C 291.378906 225.371094 293.914062 220.898438 296.554688 216.488281 C 299.199219 212.082031 301.949219 207.738281 304.804688 203.464844 C 307.660156 199.191406 310.621094 194.992188 313.683594 190.863281 C 316.746094 186.734375 319.910156 182.683594 323.171875 178.710938 C 326.433594 174.738281 329.789062 170.84375 333.242188 167.035156 C 336.695312 163.226562 340.238281 159.507812 343.875 155.871094 C 347.511719 152.238281 351.234375 148.695312 355.042969 145.242188 C 358.851562 141.789062 362.746094 138.433594 366.71875 135.171875 C 370.695312 131.914062 374.746094 128.75 378.875 125.6875 C 383.003906 122.628906 387.207031 119.667969 391.480469 116.8125 C 395.757812 113.957031 400.097656 111.207031 404.507812 108.566406 C 408.917969 105.921875 413.390625 103.390625 417.925781 100.96875 C 422.460938 98.542969 427.050781 96.234375 431.699219 94.035156 C 436.347656 91.839844 441.046875 89.757812 445.796875 87.789062 C 450.546875 85.824219 455.34375 83.972656 460.183594 82.242188 C 465.023438 80.507812 469.90625 78.898438 474.824219 77.40625 C 479.746094 75.914062 484.699219 74.542969 489.6875 73.292969 C 494.671875 72.046875 499.6875 70.917969 504.730469 69.917969 C 509.773438 68.914062 514.835938 68.035156 519.921875 67.28125 C 525.007812 66.527344 530.109375 65.898438 535.226562 65.394531 C 540.34375 64.890625 545.46875 64.511719 550.605469 64.261719 C 555.742188 64.007812 560.878906 63.882812 566.019531 63.882812 C 571.160156 63.882812 576.300781 64.007812 581.4375 64.261719 C 586.570312 64.511719 591.695312 64.890625 596.8125 65.394531 C 601.929688 65.898438 607.03125 66.527344 612.117188 67.28125 C 617.203125 68.035156 622.265625 68.914062 627.308594 69.917969 C 632.351562 70.917969 637.367188 72.046875 642.355469 73.292969 C 647.34375 74.542969 652.296875 75.914062 657.214844 77.40625 C 662.136719 78.898438 667.015625 80.507812 671.859375 82.242188 C 676.699219 83.972656 681.496094 85.824219 686.246094 87.789062 C 690.996094 89.757812 695.695312 91.839844 700.339844 94.035156 C 704.988281 96.234375 709.582031 98.542969 714.113281 100.96875 C 718.648438 103.390625 723.121094 105.921875 727.53125 108.566406 C 731.941406 111.207031 736.285156 113.957031 740.558594 116.8125 C 744.832031 119.667969 749.035156 122.628906 753.164062 125.6875 C 757.296875 128.75 761.347656 131.914062 765.320312 135.171875 C 769.296875 138.433594 773.1875 141.789062 776.996094 145.242188 C 780.808594 148.695312 784.53125 152.238281 788.164062 155.871094 C 791.800781 159.507812 795.34375 163.226562 798.796875 167.035156 C 802.25 170.84375 805.609375 174.738281 808.871094 178.710938 C 812.132812 182.683594 815.292969 186.734375 818.355469 190.863281 C 821.417969 194.992188 824.378906 199.191406 827.234375 203.464844 C 830.09375 207.738281 832.839844 212.082031 835.484375 216.488281 C 838.128906 220.898438 840.660156 225.371094 843.085938 229.902344 C 845.507812 234.4375 847.820312 239.027344 850.019531 243.671875 C 852.214844 248.320312 854.300781 253.015625 856.265625 257.765625 C 858.234375 262.515625 860.085938 267.308594 861.816406 272.148438 C 863.546875 276.988281 865.160156 281.867188 866.652344 286.785156 C 868.144531 291.703125 869.515625 296.65625 870.765625 301.640625 C 872.015625 306.628906 873.140625 311.640625 874.144531 316.683594 C 875.148438 321.726562 876.027344 326.789062 876.78125 331.871094 C 877.535156 336.957031 878.164062 342.054688 878.667969 347.171875 C 879.171875 352.285156 879.550781 357.410156 879.804688 362.546875 C 880.054688 367.679688 880.179688 372.816406 880.179688 377.957031 C 880.179688 383.097656 880.054688 388.234375 879.804688 393.367188 C 879.550781 398.5 879.171875 403.625 878.667969 408.742188 C 878.164062 413.855469 877.535156 418.957031 876.78125 424.039062 C 876.027344 429.125 875.148438 434.1875 874.144531 439.230469 C 873.140625 444.269531 872.015625 449.285156 870.765625 454.269531 C 869.515625 459.257812 868.144531 464.207031 866.652344 469.128906 C 865.160156 474.046875 863.546875 478.925781 861.816406 483.765625 C 860.085938 488.605469 858.234375 493.398438 856.265625 498.148438 C 854.300781 502.898438 852.214844 507.59375 850.019531 512.242188 C 847.820312 516.886719 845.507812 521.476562 843.085938 526.011719 C 840.660156 530.542969 838.128906 535.015625 835.484375 539.421875 C 832.839844 543.832031 830.09375 548.171875 827.234375 552.445312 C 824.378906 556.722656 821.417969 560.921875 818.355469 565.050781 C 815.292969 569.179688 812.132812 573.230469 808.871094 577.203125 C 805.609375 581.175781 802.25 585.066406 798.796875 588.875 C 795.34375 592.683594 791.800781 596.40625 788.164062 600.039062 C 784.53125 603.675781 780.808594 607.21875 776.996094 610.671875 C 773.1875 614.121094 769.296875 617.480469 765.320312 620.738281 C 761.347656 624 757.296875 627.160156 753.164062 630.222656 C 749.035156 633.285156 744.832031 636.246094 740.558594 639.101562 C 736.285156 641.957031 731.941406 644.703125 727.53125 647.347656 C 723.121094 649.988281 718.648438 652.523438 714.113281 654.945312 C 709.582031 657.367188 704.988281 659.679688 700.339844 661.875 C 695.695312 664.074219 690.996094 666.15625 686.246094 668.125 C 681.496094 670.089844 676.699219 671.941406 671.859375 673.671875 C 667.015625 675.402344 662.136719 677.015625 657.214844 678.507812 C 652.296875 680 647.34375 681.371094 642.355469 682.617188 C 637.367188 683.867188 632.351562 684.992188 627.308594 685.996094 C 622.265625 687 617.203125 687.878906 612.117188 688.632812 C 607.03125 689.386719 601.929688 690.015625 596.8125 690.519531 C 591.695312 691.023438 586.570312 691.402344 581.4375 691.652344 C 576.300781 691.90625 571.160156 692.03125 566.019531 692.03125 C 560.878906 692.03125 555.742188 691.90625 550.605469 691.652344 C 545.46875 691.402344 540.34375 691.023438 535.226562 690.519531 C 530.109375 690.015625 525.007812 689.386719 519.921875 688.632812 C 514.835938 687.878906 509.773438 687 504.730469 685.996094 C 499.6875 684.992188 494.671875 683.867188 489.6875 682.617188 C 484.699219 681.371094 479.746094 680 474.824219 678.507812 C 469.90625 677.015625 465.023438 675.402344 460.183594 673.671875 C 455.34375 671.941406 450.546875 670.089844 445.796875 668.125 C 441.046875 666.15625 436.347656 664.074219 431.699219 661.875 C 427.050781 659.679688 422.460938 657.367188 417.925781 654.945312 C 413.390625 652.523438 408.917969 649.988281 404.507812 647.347656 C 400.097656 644.703125 395.757812 641.957031 391.480469 639.101562 C 387.207031 636.246094 383.003906 633.285156 378.875 630.222656 C 374.746094 627.160156 370.695312 624 366.71875 620.738281 C 362.746094 617.480469 358.851562 614.121094 355.042969 610.671875 C 351.234375 607.21875 347.511719 603.675781 343.875 600.039062 C 340.238281 596.40625 336.695312 592.683594 333.242188 588.875 C 329.789062 585.066406 326.433594 581.175781 323.171875 577.203125 C 319.910156 573.230469 316.746094 569.179688 313.683594 565.050781 C 310.621094 560.921875 307.660156 556.71875 304.804688 552.445312 C 301.949219 548.171875 299.199219 543.832031 296.554688 539.421875 C 293.914062 535.015625 291.378906 530.542969 288.957031 526.011719 C 286.53125 521.476562 284.222656 516.886719 282.023438 512.242188 C 279.824219 507.59375 277.742188 502.898438 275.773438 498.148438 C 273.804688 493.398438 271.957031 488.605469 270.222656 483.765625 C 268.492188 478.925781 266.878906 474.046875 265.386719 469.128906 C 263.894531 464.207031 262.523438 459.257812 261.273438 454.269531 C 260.027344 449.285156 258.898438 444.269531 257.894531 439.230469 C 256.894531 434.1875 256.015625 429.125 255.261719 424.039062 C 254.503906 418.957031 253.875 413.855469 253.371094 408.742188 C 252.867188 403.625 252.492188 398.5 252.238281 393.367188 C 251.984375 388.234375 251.859375 383.097656 251.859375 377.957031 Z M 251.859375 377.957031 " clip-rule="nonzero"/></clipPath><clipPath id="e264f775d0"><path d="M 267 13 L 921 13 L 921 442 L 267 442 Z M 267 13 " clip-rule="nonzero"/></clipPath><clipPath id="861707e861"><path d="M 609.265625 14.289062 C 614.605469 14.535156 619.9375 14.910156 625.261719 15.417969 C 630.585938 15.925781 635.890625 16.5625 641.183594 17.328125 C 646.472656 18.097656 651.742188 18.992188 656.992188 20.019531 C 662.238281 21.042969 667.457031 22.199219 672.648438 23.480469 C 677.839844 24.761719 682.996094 26.171875 688.117188 27.707031 C 693.238281 29.242188 698.320312 30.902344 703.359375 32.6875 C 708.398438 34.472656 713.394531 36.378906 718.339844 38.410156 C 723.285156 40.4375 728.179688 42.589844 733.019531 44.859375 C 737.859375 47.128906 742.644531 49.515625 747.367188 52.019531 C 752.089844 54.523438 756.75 57.144531 761.34375 59.878906 C 765.941406 62.609375 770.464844 65.457031 774.921875 68.410156 C 779.375 71.367188 783.753906 74.429688 788.058594 77.601562 C 792.367188 80.769531 796.589844 84.042969 800.734375 87.421875 C 804.878906 90.800781 808.9375 94.277344 812.910156 97.855469 C 816.882812 101.433594 820.765625 105.105469 824.558594 108.871094 C 828.351562 112.640625 832.050781 116.5 835.652344 120.449219 C 839.257812 124.398438 842.761719 128.433594 846.167969 132.554688 C 849.570312 136.675781 852.875 140.875 856.074219 145.160156 C 859.273438 149.441406 862.363281 153.800781 865.347656 158.238281 C 868.332031 162.671875 871.207031 167.179688 873.972656 171.753906 C 876.734375 176.328125 879.382812 180.972656 881.917969 185.675781 C 884.457031 190.382812 886.875 195.148438 889.175781 199.972656 C 891.476562 204.796875 893.660156 209.675781 895.71875 214.609375 C 897.78125 219.542969 899.722656 224.519531 901.539062 229.546875 C 903.355469 234.574219 905.050781 239.644531 906.617188 244.753906 C 908.1875 249.863281 909.628906 255.011719 910.945312 260.191406 C 912.261719 265.371094 913.449219 270.582031 914.507812 275.820312 C 915.570312 281.0625 916.5 286.324219 917.300781 291.609375 C 918.101562 296.894531 918.773438 302.195312 919.316406 307.511719 C 919.855469 312.832031 920.265625 318.160156 920.546875 323.496094 C 920.824219 328.835938 920.972656 334.175781 920.992188 339.523438 C 921.007812 344.867188 920.894531 350.210938 920.648438 355.550781 C 920.402344 360.890625 920.027344 366.21875 919.519531 371.542969 C 919.011719 376.863281 918.375 382.167969 917.609375 387.457031 C 916.839844 392.75 915.945312 398.015625 914.917969 403.261719 C 913.890625 408.507812 912.738281 413.726562 911.453125 418.917969 C 910.171875 424.105469 908.761719 429.261719 907.226562 434.378906 C 905.691406 439.5 904.03125 444.582031 902.246094 449.617188 C 900.460938 454.65625 898.550781 459.648438 896.523438 464.59375 C 894.492188 469.539062 892.339844 474.433594 890.070312 479.269531 C 887.800781 484.109375 885.410156 488.890625 882.90625 493.613281 C 880.402344 498.335938 877.78125 502.996094 875.046875 507.589844 C 872.3125 512.183594 869.46875 516.707031 866.511719 521.160156 C 863.554688 525.613281 860.492188 529.992188 857.320312 534.296875 C 854.148438 538.601562 850.875 542.824219 847.496094 546.964844 C 844.117188 551.109375 840.636719 555.167969 837.058594 559.140625 C 833.480469 563.109375 829.808594 566.992188 826.039062 570.785156 C 822.269531 574.578125 818.410156 578.273438 814.460938 581.875 C 810.511719 585.480469 806.472656 588.980469 802.351562 592.386719 C 798.230469 595.789062 794.027344 599.09375 789.742188 602.289062 C 785.457031 605.488281 781.097656 608.578125 776.660156 611.5625 C 772.222656 614.546875 767.71875 617.421875 763.140625 620.183594 C 758.5625 622.945312 753.921875 625.59375 749.214844 628.128906 C 744.503906 630.664062 739.738281 633.082031 734.914062 635.382812 C 730.085938 637.683594 725.207031 639.867188 720.273438 641.925781 C 715.339844 643.988281 710.359375 645.925781 705.332031 647.746094 C 700.300781 649.5625 695.230469 651.253906 690.121094 652.820312 C 685.007812 654.390625 679.863281 655.832031 674.679688 657.148438 C 669.496094 658.464844 664.285156 659.652344 659.042969 660.710938 C 653.804688 661.769531 648.539062 662.699219 643.253906 663.5 C 637.964844 664.300781 632.664062 664.972656 627.34375 665.515625 C 622.023438 666.054688 616.695312 666.464844 611.355469 666.746094 C 606.015625 667.023438 600.671875 667.171875 595.328125 667.191406 C 589.980469 667.207031 584.636719 667.09375 579.292969 666.847656 C 573.953125 666.601562 568.621094 666.226562 563.296875 665.71875 C 557.976562 665.214844 552.667969 664.574219 547.375 663.808594 C 542.085938 663.042969 536.816406 662.144531 531.566406 661.117188 C 526.320312 660.09375 521.101562 658.9375 515.910156 657.65625 C 510.71875 656.375 505.5625 654.964844 500.441406 653.429688 C 495.320312 651.894531 490.238281 650.234375 485.199219 648.449219 C 480.160156 646.664062 475.164062 644.757812 470.21875 642.726562 C 465.273438 640.699219 460.378906 638.546875 455.539062 636.277344 C 450.699219 634.007812 445.914062 631.621094 441.191406 629.117188 C 436.46875 626.613281 431.808594 623.992188 427.214844 621.257812 C 422.621094 618.527344 418.09375 615.679688 413.640625 612.726562 C 409.183594 609.769531 404.804688 606.707031 400.5 603.535156 C 396.195312 600.367188 391.96875 597.09375 387.824219 593.714844 C 383.679688 590.335938 379.621094 586.859375 375.648438 583.28125 C 371.675781 579.703125 367.792969 576.03125 364 572.265625 C 360.207031 568.496094 356.507812 564.636719 352.90625 560.6875 C 349.300781 556.738281 345.796875 552.703125 342.390625 548.582031 C 338.988281 544.460938 335.683594 540.261719 332.484375 535.976562 C 329.289062 531.695312 326.195312 527.335938 323.210938 522.898438 C 320.226562 518.464844 317.351562 513.960938 314.589844 509.382812 C 311.824219 504.808594 309.175781 500.164062 306.640625 495.460938 C 304.105469 490.753906 301.683594 485.988281 299.382812 481.164062 C 297.082031 476.339844 294.902344 471.460938 292.839844 466.527344 C 290.777344 461.597656 288.835938 456.617188 287.019531 451.589844 C 285.203125 446.5625 283.507812 441.492188 281.941406 436.382812 C 280.371094 431.273438 278.929688 426.128906 277.613281 420.945312 C 276.296875 415.765625 275.109375 410.554688 274.050781 405.316406 C 272.992188 400.074219 272.058594 394.8125 271.257812 389.527344 C 270.457031 384.242188 269.785156 378.941406 269.246094 373.625 C 268.703125 368.304688 268.292969 362.976562 268.011719 357.640625 C 267.734375 352.300781 267.585938 346.960938 267.570312 341.613281 C 267.550781 336.269531 267.664062 330.925781 267.910156 325.585938 C 268.15625 320.246094 268.53125 314.917969 269.039062 309.59375 C 269.546875 304.273438 270.183594 298.96875 270.949219 293.679688 C 271.71875 288.386719 272.617188 283.121094 273.640625 277.875 C 274.667969 272.628906 275.824219 267.410156 277.105469 262.21875 C 278.386719 257.03125 279.796875 251.875 281.332031 246.757812 C 282.867188 241.636719 284.527344 236.558594 286.3125 231.519531 C 288.097656 226.480469 290.007812 221.488281 292.039062 216.542969 C 294.066406 211.597656 296.21875 206.703125 298.488281 201.867188 C 300.757812 197.027344 303.148438 192.246094 305.652344 187.523438 C 308.15625 182.800781 310.777344 178.140625 313.511719 173.546875 C 316.246094 168.953125 319.089844 164.429688 322.046875 159.976562 C 325.003906 155.523438 328.066406 151.144531 331.238281 146.839844 C 334.410156 142.535156 337.6875 138.3125 341.066406 134.171875 C 344.445312 130.027344 347.921875 125.96875 351.5 121.996094 C 355.078125 118.027344 358.75 114.144531 362.519531 110.351562 C 366.289062 106.558594 370.148438 102.863281 374.097656 99.261719 C 378.046875 95.65625 382.085938 92.15625 386.207031 88.75 C 390.328125 85.347656 394.53125 82.042969 398.816406 78.847656 C 403.101562 75.648438 407.460938 72.558594 411.898438 69.574219 C 416.335938 66.589844 420.839844 63.714844 425.417969 60.953125 C 429.996094 58.191406 434.636719 55.542969 439.347656 53.007812 C 444.054688 50.472656 448.820312 48.054688 453.648438 45.753906 C 458.472656 43.453125 463.351562 41.269531 468.285156 39.210938 C 473.21875 37.148438 478.199219 35.210938 483.230469 33.390625 C 488.257812 31.574219 493.328125 29.882812 498.4375 28.316406 C 503.550781 26.746094 508.699219 25.304688 513.878906 23.988281 C 519.0625 22.675781 524.273438 21.488281 529.515625 20.425781 C 534.753906 19.367188 540.019531 18.4375 545.304688 17.636719 C 550.59375 16.835938 555.894531 16.164062 561.214844 15.621094 C 566.535156 15.082031 571.863281 14.671875 577.203125 14.390625 C 582.542969 14.113281 587.886719 13.964844 593.234375 13.945312 C 598.578125 13.929688 603.925781 14.042969 609.265625 14.289062 Z M 609.265625 14.289062 " clip-rule="nonzero"/></clipPath><clipPath id="c4a804a166"><path d="M 299 143 L 865 143 L 865 682 L 299 682 Z M 299 143 " clip-rule="nonzero"/></clipPath><clipPath id="2ff5732cf6"><path d="M 517.449219 674.238281 C 512.953125 673.175781 508.480469 672.003906 504.039062 670.722656 C 499.597656 669.441406 495.191406 668.054688 490.820312 666.558594 C 486.445312 665.058594 482.113281 663.457031 477.816406 661.746094 C 473.523438 660.039062 469.273438 658.222656 465.066406 656.304688 C 460.863281 654.386719 456.707031 652.367188 452.601562 650.246094 C 448.496094 648.121094 444.445312 645.902344 440.445312 643.578125 C 436.449219 641.257812 432.511719 638.839844 428.632812 636.324219 C 424.753906 633.8125 420.941406 631.203125 417.191406 628.503906 C 413.441406 625.800781 409.757812 623.007812 406.144531 620.125 C 402.535156 617.242188 398.992188 614.273438 395.527344 611.21875 C 392.058594 608.164062 388.667969 605.023438 385.355469 601.800781 C 382.042969 598.578125 378.808594 595.277344 375.660156 591.894531 C 372.507812 588.515625 369.441406 585.058594 366.460938 581.527344 C 363.480469 577.996094 360.585938 574.390625 357.785156 570.71875 C 354.980469 567.042969 352.265625 563.304688 349.644531 559.496094 C 347.027344 555.691406 344.5 551.820312 342.070312 547.890625 C 339.640625 543.960938 337.304688 539.972656 335.070312 535.925781 C 332.835938 531.882812 330.703125 527.785156 328.667969 523.636719 C 326.636719 519.484375 324.707031 515.289062 322.878906 511.042969 C 321.050781 506.796875 319.328125 502.511719 317.710938 498.183594 C 316.09375 493.851562 314.585938 489.488281 313.183594 485.082031 C 311.78125 480.679688 310.488281 476.246094 309.304688 471.777344 C 308.117188 467.3125 307.042969 462.816406 306.082031 458.296875 C 305.117188 453.777344 304.265625 449.238281 303.523438 444.675781 C 302.78125 440.117188 302.152344 435.539062 301.636719 430.945312 C 301.121094 426.355469 300.71875 421.753906 300.429688 417.140625 C 300.136719 412.527344 299.960938 407.910156 299.898438 403.292969 C 299.835938 398.671875 299.886719 394.050781 300.046875 389.433594 C 300.210938 384.816406 300.488281 380.203125 300.878906 375.597656 C 301.269531 370.992188 301.769531 366.402344 302.386719 361.820312 C 303 357.242188 303.730469 352.679688 304.570312 348.136719 C 305.410156 343.589844 306.359375 339.070312 307.421875 334.574219 C 308.480469 330.074219 309.652344 325.605469 310.933594 321.167969 C 312.214844 316.726562 313.605469 312.320312 315.101562 307.949219 C 316.597656 303.574219 318.203125 299.242188 319.914062 294.949219 C 321.625 290.65625 323.4375 286.410156 325.355469 282.203125 C 327.277344 278 329.296875 273.84375 331.417969 269.742188 C 333.542969 265.636719 335.765625 261.585938 338.085938 257.589844 C 340.40625 253.59375 342.828125 249.65625 345.339844 245.78125 C 347.855469 241.902344 350.464844 238.089844 353.167969 234.339844 C 355.871094 230.589844 358.664062 226.910156 361.546875 223.296875 C 364.429688 219.6875 367.398438 216.148438 370.457031 212.679688 C 373.511719 209.214844 376.652344 205.824219 379.875 202.511719 C 383.101562 199.203125 386.402344 195.96875 389.785156 192.820312 C 393.167969 189.671875 396.625 186.605469 400.15625 183.625 C 403.6875 180.644531 407.292969 177.753906 410.96875 174.949219 C 414.640625 172.144531 418.382812 169.433594 422.191406 166.8125 C 426 164.195312 429.867188 161.667969 433.800781 159.238281 C 437.730469 156.808594 441.722656 154.476562 445.765625 152.242188 C 449.8125 150.007812 453.914062 147.875 458.0625 145.84375 C 462.214844 143.808594 466.414062 141.878906 470.660156 140.054688 C 474.90625 138.226562 479.191406 136.503906 483.523438 134.890625 C 487.855469 133.273438 492.222656 131.761719 496.625 130.359375 C 501.03125 128.960938 505.464844 127.667969 509.933594 126.480469 C 514.402344 125.296875 518.898438 124.222656 523.417969 123.261719 C 527.9375 122.296875 532.480469 121.445312 537.042969 120.703125 C 541.605469 119.964844 546.183594 119.335938 550.777344 118.820312 C 555.371094 118.300781 559.972656 117.898438 564.585938 117.609375 C 569.199219 117.320312 573.816406 117.144531 578.441406 117.078125 C 583.0625 117.015625 587.683594 117.066406 592.300781 117.230469 C 596.921875 117.394531 601.535156 117.667969 606.140625 118.058594 C 610.746094 118.449219 615.339844 118.953125 619.921875 119.566406 C 624.503906 120.183594 629.066406 120.910156 633.609375 121.75 C 638.15625 122.589844 642.679688 123.539062 647.175781 124.601562 C 651.675781 125.660156 656.144531 126.832031 660.585938 128.113281 C 665.027344 129.394531 669.4375 130.78125 673.808594 132.277344 C 678.183594 133.777344 682.515625 135.378906 686.8125 137.089844 C 691.105469 138.796875 695.355469 140.613281 699.558594 142.53125 C 703.765625 144.449219 707.921875 146.46875 712.027344 148.589844 C 716.132812 150.714844 720.183594 152.9375 724.183594 155.257812 C 728.179688 157.578125 732.117188 159.996094 735.996094 162.511719 C 739.871094 165.023438 743.6875 167.632812 747.4375 170.335938 C 751.1875 173.035156 754.867188 175.828125 758.480469 178.710938 C 762.09375 181.59375 765.636719 184.5625 769.101562 187.617188 C 772.570312 190.675781 775.960938 193.8125 779.273438 197.035156 C 782.585938 200.257812 785.816406 203.558594 788.96875 206.941406 C 792.121094 210.320312 795.1875 213.777344 798.167969 217.308594 C 801.148438 220.84375 804.039062 224.445312 806.84375 228.117188 C 809.648438 231.792969 812.363281 235.53125 814.980469 239.339844 C 817.601562 243.144531 820.128906 247.015625 822.558594 250.945312 C 824.988281 254.875 827.320312 258.863281 829.554688 262.910156 C 831.792969 266.953125 833.925781 271.050781 835.957031 275.203125 C 837.992188 279.351562 839.921875 283.546875 841.75 287.792969 C 843.578125 292.039062 845.300781 296.324219 846.914062 300.652344 C 848.53125 304.984375 850.042969 309.351562 851.445312 313.753906 C 852.847656 318.15625 854.140625 322.589844 855.324219 327.058594 C 856.507812 331.523438 857.582031 336.019531 858.546875 340.539062 C 859.511719 345.058594 860.363281 349.597656 861.105469 354.160156 C 861.847656 358.71875 862.472656 363.296875 862.992188 367.890625 C 863.507812 372.480469 863.910156 377.082031 864.199219 381.695312 C 864.488281 386.308594 864.667969 390.925781 864.730469 395.542969 C 864.792969 400.164062 864.742188 404.785156 864.578125 409.402344 C 864.417969 414.019531 864.140625 418.632812 863.75 423.238281 C 863.359375 427.84375 862.859375 432.433594 862.242188 437.015625 C 861.625 441.59375 860.898438 446.15625 860.058594 450.699219 C 859.21875 455.246094 858.269531 459.765625 857.207031 464.261719 C 856.144531 468.761719 854.976562 473.230469 853.695312 477.671875 C 852.414062 482.109375 851.023438 486.515625 849.527344 490.886719 C 848.027344 495.261719 846.425781 499.59375 844.714844 503.886719 C 843.003906 508.179688 841.191406 512.429688 839.273438 516.632812 C 837.351562 520.835938 835.332031 524.992188 833.210938 529.09375 C 831.085938 533.199219 828.863281 537.25 826.542969 541.246094 C 824.21875 545.242188 821.800781 549.179688 819.285156 553.054688 C 816.773438 556.933594 814.164062 560.746094 811.460938 564.496094 C 808.757812 568.246094 805.964844 571.925781 803.082031 575.539062 C 800.199219 579.148438 797.230469 582.6875 794.171875 586.15625 C 791.117188 589.621094 787.976562 593.011719 784.753906 596.324219 C 781.527344 599.636719 778.226562 602.867188 774.84375 606.015625 C 771.460938 609.167969 768.003906 612.230469 764.472656 615.210938 C 760.9375 618.191406 757.335938 621.082031 753.660156 623.886719 C 749.988281 626.691406 746.246094 629.402344 742.4375 632.023438 C 738.628906 634.640625 734.761719 637.167969 730.828125 639.597656 C 726.894531 642.027344 722.90625 644.359375 718.859375 646.59375 C 714.816406 648.828125 710.714844 650.960938 706.566406 652.992188 C 702.414062 655.027344 698.214844 656.957031 693.96875 658.78125 C 689.722656 660.609375 685.4375 662.332031 681.105469 663.949219 C 676.773438 665.5625 672.40625 667.074219 668.003906 668.476562 C 663.597656 669.878906 659.160156 671.171875 654.695312 672.355469 C 650.226562 673.539062 645.730469 674.613281 641.210938 675.574219 C 636.691406 676.539062 632.148438 677.390625 627.585938 678.132812 C 623.023438 678.875 618.445312 679.5 613.851562 680.015625 C 609.257812 680.535156 604.65625 680.9375 600.042969 681.226562 C 595.429688 681.515625 590.8125 681.695312 586.1875 681.757812 C 581.566406 681.820312 576.945312 681.769531 572.328125 681.605469 C 567.707031 681.441406 563.09375 681.167969 558.488281 680.777344 C 553.882812 680.386719 549.289062 679.882812 544.707031 679.269531 C 540.125 678.652344 535.5625 677.925781 531.015625 677.085938 C 526.472656 676.25 521.949219 675.296875 517.449219 674.238281 Z M 517.449219 674.238281 " clip-rule="nonzero"/></clipPath></defs><g clip-path="url(#37aa6e951f)"><g clip-path="url(#997377c2fc)"><path fill="#ff7b44" d="M 542.234375 708.65625 C 456.539062 697.792969 375.125 653.769531 318.980469 579.5 C 208.449219 433.28125 237.453125 224.859375 383.710938 114.359375 C 465.71875 52.398438 567.289062 34.296875 660.1875 56.128906 C 577.171875 45.605469 490.140625 66.203125 418.171875 120.574219 C 271.914062 231.078125 242.910156 439.496094 353.441406 585.714844 C 401.996094 649.945312 469.453125 691.554688 542.234375 708.65625 Z M 542.234375 708.65625 " fill-opacity="1" fill-rule="evenodd"/></g></g><g clip-path="url(#e264f775d0)"><g clip-path="url(#861707e861)"><path fill="#4c9fa2" d="M 252.765625 287.824219 C 268.144531 199.339844 317.777344 116.886719 397.628906 62.121094 C 554.84375 -45.699219 770.039062 -5.636719 877.890625 151.535156 C 938.363281 239.660156 952.328125 346.011719 925.214844 441.453125 C 940.109375 355.738281 922.855469 264.367188 869.789062 187.027344 C 761.9375 29.859375 546.742188 -10.207031 389.527344 97.613281 C 320.46875 144.980469 274.011719 213.050781 252.765625 287.824219 Z M 252.765625 287.824219 " fill-opacity="1" fill-rule="evenodd"/></g></g><g clip-path="url(#c4a804a166)"><g clip-path="url(#2ff5732cf6)"><path fill="#ffb544" d="M 952.910156 421.632812 C 920.304688 508.804688 743.121094 699.402344 651.300781 739.894531 C 470.539062 819.613281 359.808594 627.882812 280.070312 447.167969 C 235.359375 345.835938 291.804688 235.699219 337.699219 143.6875 C 306.113281 228.132812 276.304688 313.378906 305.199219 406.179688 C 370.40625 615.609375 582.410156 696.597656 777.195312 589.171875 C 853.1875 547.261719 916.953125 493.71875 952.910156 421.632812 Z M 952.910156 421.632812 " fill-opacity="1" fill-rule="evenodd"/></g></g></svg>